<svg xmlns="http://www.w3.org/2000/svg" viewBox="0 0 24 24" width="100%" height="100%">
  <g fill="none" stroke="#FFFFFF" stroke-width="2" stroke-linecap="round" stroke-linejoin="round">
    <path d="M10 5C10 7.76 7.76 10 5 10C7.76 10 10 12.24 10 15C10 12.24 12.24 10 15 10C12.24 10 10 7.76 10 5Z" />
    
    <path d="M18 2C18 3.66 16.66 5 15 5C16.66 5 18 6.34 18 8C18 6.34 19.34 5 21 5C19.34 5 18 3.66 18 2Z" stroke-width="1.5" />
    
    <path d="M16 14C16 15.1 15.1 16 14 16C15.1 16 16 16.9 16 18C16 16.9 16.9 16 18 16C16.9 16 16 15.1 16 14Z" stroke-width="1.2" />
  </g>
</svg>
