<svg xmlns="http://www.w3.org/2000/svg" width="24" height="24" viewBox="0 0 24 24" fill="none" stroke="#FFFFFF" stroke-width="2" stroke-linecap="round" stroke-linejoin="round">
  <path d="M9.813 15.904L9 18.75l-.813-2.846a4.5 4.5 0 00-3.09-3.09L2.25 12l2.846-.813a4.5 4.5 0 003.09-3.09L9 5.25l.813 2.846a4.5 4.5 0 003.09 3.09L15.75 12l-2.846.813a4.5 4.5 0 00-3.09 3.09zM18.259 8.715L18 9.75l-.259-1.035a3.375 3.375 0 00-2.455-2.456L14.25 6l1.036-.259a3.375 3.375 0 002.455-2.456L18 2.25l.259 1.035a3.375 3.375 0 002.455 2.456L21.75 6l-1.036.259a3.375 3.375 0 00-2.455 2.456zM16.894 20.567L16 18.75l-.894 1.817a2.25 2.25 0 01-1.54 1.538L11.75 23l1.817.894a2.25 2.25 0 011.538 1.54L15 27.25l.894-1.817a2.25 2.25 0 011.54-1.538L19.25 23l-1.817-.894a2.25 2.25 0 01-1.538-1.54z"/>
</svg>
